<?xml version="1.0" encoding="utf-8"?>
<!-- Generator: Adobe Illustrator 19.2.0, SVG Export Plug-In . SVG Version: 6.00 Build 0)  -->
<svg version="1.1" id="Layer_1" xmlns="http://www.w3.org/2000/svg" xmlns:xlink="http://www.w3.org/1999/xlink" x="0px" y="0px"
	 viewBox="0 0 1920 1080" style="enable-background:new 0 0 1920 1080;" xml:space="preserve">
<style type="text/css">
	.st0{fill:#333333;}
	.st1{fill:#603813;}
	.st2{fill:#4D4D4D;}
	.st3{fill:#754C24;}
	.st4{fill:#F69B76;}
	.st5{fill:#8C6239;}
	.st6{fill:#F7DA9F;}
	.st7{fill:#A67C52;}
	.st8{fill:#C69C6D;}
	.st9{opacity:0.8;fill:none;stroke:#FFFFFF;stroke-width:0.6532;stroke-miterlimit:10;}
	.st10{fill:#D6B06E;}
	.st11{clip-path:url(#SVGID_2_);fill:none;stroke:#C7B299;stroke-width:2.613;stroke-miterlimit:10;}
	.st12{fill:#F8C09D;}
	.st13{fill:#F6AE8D;}
	.st14{fill:#EF937E;}
	.st15{fill:#E26C60;}
</style>
<path class="st0" d="M1072.9,311.7l-3.4-23.2l-1,0.1l-3,0.4l-15,2.2l-4,0.6l1,7l1.9,13.2c-1.5,0-3.1,0.4-4.7,1.2
	c-3.8,1.9-5.9,5.4-4.7,7.8c1.2,2.4,5.3,2.8,9,0.9c3.6-1.8,5.7-5.1,4.8-7.5l-2.4-16.2l15-2.2l1.9,13.2c-1.5,0-3.1,0.4-4.7,1.2
	c-3.8,1.9-5.9,5.4-4.7,7.8c1.2,2.4,5.3,2.8,9,0.9C1071.7,317.4,1073.8,314.1,1072.9,311.7z"/>
<path class="st0" d="M1182.7,296.3l1.5-21l0.3-3.5l-4-0.3l-15.1-1.1l-4-0.3l-0.3,3.5l-0.3,4l-0.3,3.5l-0.7,10.3
	c-1.4-0.3-3.1-0.3-4.7,0.2c-4.1,1-6.9,4-6.2,6.6c0.7,2.6,4.5,3.8,8.6,2.8c4.1-1,6.9-4,6.2-6.6c0,0,0,0,0,0l0.9-12.9l15.1,1.1
	l-0.7,10.3c-1.4-0.3-3.1-0.3-4.9,0.2c-4.1,1-6.9,4-6.2,6.6c0.7,2.6,4.5,3.8,8.6,2.8C1180.3,301.4,1182.9,298.8,1182.7,296.3z
	 M1164.9,278l0.3-4l15.1,1.1l-0.3,4L1164.9,278z"/>
<path class="st0" d="M1125.8,267.8c-3.1,0-2.1-4.5-5.1-7.7c-3-3.1-5.9-1.9-5.9-1.9l-2.8,20.6c-1.3-0.3-2.9-0.3-4.5,0
	c-4.2,0.8-7.1,3.6-6.6,6.2c0.5,2.6,4.3,4.1,8.5,3.3c3.7-0.7,6.5-3,6.7-5.4l0,0l2.2-16.4C1121.8,270.7,1125.8,267.8,1125.8,267.8z"/>
<g>
	<rect x="905.7" y="664.8" class="st1" width="16.2" height="237.1"/>
	<rect x="855.7" y="897.8" class="st1" width="120" height="11.1"/>
	<rect x="855.7" y="857.4" class="st1" width="120" height="11.1"/>
	<path class="st1" d="M989.1,913.6h-13.4v-20.6h13.4c5.7,0,10.3,4.6,10.3,10.3v0C999.4,909,994.8,913.6,989.1,913.6z"/>
	<path class="st1" d="M989.1,873.2h-13.4v-20.6h13.4c5.7,0,10.3,4.6,10.3,10.3v0C999.4,868.6,994.8,873.2,989.1,873.2z"/>
	<path class="st1" d="M843.2,913.6h13.4v-20.6h-13.4c-5.7,0-10.3,4.6-10.3,10.3v0C832.9,909,837.5,913.6,843.2,913.6z"/>
	<path class="st1" d="M843.6,873.6h13.4V853h-13.4c-5.7,0-10.3,4.6-10.3,10.3l0,0C833.3,869,838,873.6,843.6,873.6z"/>
</g>
<ellipse class="st1" cx="904.5" cy="643.2" rx="81.7" ry="30.3"/>
<path class="st2" d="M906.4,655h-1.3c-41.6,0-75.4-34.2-75.4-75.8V579h152v0.2C981.8,620.8,948,655,906.4,655z"/>
<path class="st3" d="M967,813.9l-11.5,39.4l77.5,23c0,0,2.2-18.5-15.8-27.4c-18-9-37.3-2.8-37.3-2.8l5.6-26.8L967,813.9z"/>
<path class="st2" d="M955.5,820.1l36.1,8.9c0,0,24.4-77,35.5-107.3c9-24.4-67.3-142.8-67.3-142.8l-54,16.7c0,0,61.4,97.1,76.7,121.8
	C987.2,725,955.5,820.1,955.5,820.1z"/>
<path class="st3" d="M844.9,907.4c0,0-4.1,13-7.8,38.3c-3.8,25.7,42.6,28.9,37-4.6c-3.6-21.3-10.2-41.3-10.2-41.3L844.9,907.4z"/>
<path class="st2" d="M878.2,909.5l-43.3,0.9c0,0-25.1-123.1-31.5-160.4c-4.8-27.9,42.6-171,42.6-171h63.8c0,0-41.2,140.6-53.1,171
	C852.1,761.1,878.2,909.5,878.2,909.5z"/>
<path class="st4" d="M981.8,579h-152l-1.4-177.3c0-17.5,10.8-31.7,24.2-31.7h103.5c13.4,0,24.2,14.2,24.2,31.7L981.8,579z"/>
<path class="st4" d="M1076.8,532.6l-1.6,1.2c-7.7,5.8-18.7,4.2-24.4-3.6L954.3,403c-5.8-7.7-4.2-18.7,3.6-24.4l1.6-1.2
	c7.7-5.8,18.7-4.2,24.4,3.6l96.6,127.2C1086.2,515.9,1084.6,526.9,1076.8,532.6z"/>
<path class="st5" d="M966.7,521h-26.9V377.2c0-4,3.3-7.3,7.3-7.3h12.4c4,0,7.3,3.3,7.3,7.3V521z"/>
<g>
	<path class="st6" d="M914.2,647.8c4.2-13.9,15-24.7,28.7-29.7c6.9-2.5,13.5-6.1,19.7-10.8c33.4-25.3,28.5-64.1,3.2-97.5
		c-25.3-33.4-61.3-48.6-94.7-23.3c-6.2,4.7-11.4,10.1-15.7,16c-8.6,11.9-22.1,19.2-36.7,19.6c-19.9,0.5-43.7,1.8-60.7,14.8
		c-42.3,32.3-33.2,87.9-1.4,130.6c32.4,43.4,84.1,67.6,127.2,35C900.8,689.4,908.5,666.8,914.2,647.8z"/>
	<polygon class="st7" points="905,582.6 879.2,548.6 1100.3,387.7 1119.8,413.4 	"/>
	<path class="st6" d="M914.2,647.8c4.2-13.9,15-24.7,28.7-29.7c6.9-2.5,13.5-6.1,19.7-10.8c33.4-25.3,28.5-64.1,3.2-97.5
		c-25.3-33.4-61.3-48.6-94.7-23.3c-6.2,4.7-11.4,10.1-15.7,16c-8.6,11.9-22.1,19.2-36.7,19.6c-19.9,0.5-43.7,1.8-60.7,14.8
		c-42.3,32.3-33.2,87.9-1.4,130.6c32.4,43.4,84.1,67.6,127.2,35C900.8,689.4,908.5,666.8,914.2,647.8z"/>
	
		<ellipse transform="matrix(0.7971 -0.6039 0.6039 0.7971 -160.5224 653.4793)" class="st7" cx="892.1" cy="565.6" rx="37.4" ry="37.4"/>
	
		<ellipse transform="matrix(0.7971 -0.6039 0.6039 0.7971 -160.5224 653.4793)" class="st3" cx="892.1" cy="565.6" rx="28.4" ry="28.4"/>
	<path class="st8" d="M820.2,647l-26.4-34.9c-1.2-1.6-0.9-4,0.7-5.2l6.6-5c1.6-1.2,4-0.9,5.2,0.7l26.4,34.9c1.2,1.6,0.9,4-0.7,5.2
		l-6.6,5C823.8,648.9,821.4,648.6,820.2,647z"/>
	<line class="st9" x1="1113.1" y1="379.8" x2="805.4" y2="612.9"/>
	<line class="st9" x1="1105.5" y1="394.6" x2="809.7" y2="618.6"/>
	<line class="st9" x1="1109.8" y1="400.3" x2="814.1" y2="624.3"/>
	<line class="st9" x1="1114.2" y1="406" x2="818.4" y2="630.1"/>
	<line class="st9" x1="1118.5" y1="411.7" x2="822.7" y2="635.8"/>
	<path class="st10" d="M1155.3,332.5c-1.2-0.1-2.4,0.3-3.3,1l-48,36.3c-1.6,1.2-2.8,2.8-3.5,4.6l-0.3,13.2l19.5,25.7l12.8,3.3
		c2-0.2,3.8-0.9,5.4-2.1l48.1-36.4c0.9-0.7,1.5-1.6,1.8-2.6l4.1-15.3c0.4-1.5,0.1-3-0.8-4.2l-15.5-20.4c-0.9-1.1-2.2-1.8-3.6-1.9
		L1155.3,332.5z"/>
	<ellipse transform="matrix(0.7971 -0.6039 0.6039 0.7971 22.5541 767.1942)" class="st7" cx="1152.9" cy="350" rx="5.7" ry="5.7"/>
	
		<ellipse transform="matrix(0.7971 -0.6039 0.6039 0.7971 11.035 759.3421)" class="st7" cx="1135.4" cy="363.3" rx="5.7" ry="5.7"/>
	<ellipse transform="matrix(0.7971 -0.6039 0.6039 0.7971 -0.4841 751.4901)" class="st7" cx="1118" cy="376.5" rx="5.7" ry="5.7"/>
	
		<ellipse transform="matrix(0.7971 -0.6039 0.6039 0.7971 11.6941 783.126)" class="st7" cx="1171.2" cy="374.2" rx="5.7" ry="5.7"/>
	<ellipse transform="matrix(0.7971 -0.6039 0.6039 0.7971 0.175 775.274)" class="st7" cx="1153.7" cy="387.4" rx="5.7" ry="5.7"/>
	
		<ellipse transform="matrix(0.7971 -0.6039 0.6039 0.7971 -11.3441 767.4219)" class="st7" cx="1136.3" cy="400.6" rx="5.7" ry="5.7"/>
	<path class="st6" d="M1186.7,385l-0.8,0.6c-0.9,0.6-2.1,0.5-2.7-0.4l-2.3-3.1l-4.7,3.5l2.3,3.1c0.6,0.9,0.5,2.1-0.4,2.7l0,0
		c-0.9,0.6-1,1.9-0.4,2.7l2.9,3.9c0.6,0.9,1.9,1,2.7,0.4l8.5-6.5c0.9-0.6,1-1.9,0.4-2.7l-2.9-3.9
		C1188.8,384.5,1187.6,384.3,1186.7,385z"/>
	<path class="st6" d="M1168.9,398.5l-0.8,0.6c-0.9,0.6-2.1,0.5-2.7-0.4l-2.3-3.1l-4.7,3.5l2.3,3.1c0.6,0.9,0.5,2.1-0.4,2.7l0,0
		c-0.9,0.6-1,1.9-0.4,2.7l2.9,3.9c0.6,0.9,1.9,1,2.7,0.4l8.5-6.5c0.9-0.6,1-1.9,0.4-2.7l-2.9-3.9
		C1170.9,398,1169.7,397.9,1168.9,398.5z"/>
	<path class="st6" d="M1151,412l-0.8,0.6c-0.9,0.6-2.1,0.5-2.7-0.4l-2.3-3.1l-4.7,3.5l2.3,3.1c0.6,0.9,0.5,2.1-0.4,2.7l0,0
		c-0.9,0.6-1,1.9-0.4,2.7l2.9,3.9c0.6,0.9,1.9,1,2.7,0.4l8.5-6.5c0.9-0.6,1-1.9,0.4-2.7l-2.9-3.9
		C1153.1,411.6,1151.8,411.4,1151,412z"/>
	<path class="st6" d="M1142.3,340.8l-2.3-3.1c-0.6-0.9-1.9-1-2.7-0.4l0,0c-0.9,0.6-2.1,0.5-2.7-0.4l-2.9-3.9
		c-0.6-0.9-0.5-2.1,0.4-2.7l8.5-6.5c0.9-0.6,2.1-0.5,2.7,0.4l2.9,3.9c0.6,0.9,0.5,2.1-0.4,2.7l-0.8,0.6c-0.9,0.6-1,1.9-0.4,2.7
		l2.3,3.1"/>
	<path class="st6" d="M1124.4,354.4l-2.3-3.1c-0.6-0.9-1.9-1-2.7-0.4v0c-0.9,0.6-2.1,0.5-2.7-0.4l-2.9-3.9c-0.6-0.9-0.5-2.1,0.4-2.7
		l8.5-6.5c0.9-0.6,2.1-0.5,2.7,0.4l2.9,3.9c0.6,0.9,0.5,2.1-0.4,2.7l-0.8,0.6c-0.9,0.6-1,1.9-0.4,2.7l2.3,3.1"/>
	<path class="st6" d="M1106.6,367.9l-2.3-3.1c-0.6-0.9-1.9-1-2.7-0.4l0,0c-0.9,0.6-2.1,0.5-2.7-0.4l-2.9-3.9
		c-0.6-0.9-0.5-2.1,0.4-2.7l8.5-6.5c0.9-0.6,2.1-0.5,2.7,0.4l2.9,3.9c0.6,0.9,0.5,2.1-0.4,2.7l-0.8,0.6c-0.9,0.6-1,1.9-0.4,2.7
		l2.3,3.1"/>
	<g>
		<defs>
			<polygon id="SVGID_1_" points="905,582.6 879.2,548.6 1100.3,387.7 1119.8,413.4 			"/>
		</defs>
		<clipPath id="SVGID_2_">
			<use xlink:href="#SVGID_1_"  style="overflow:visible;"/>
		</clipPath>
		<line class="st11" x1="1073.6" y1="401.1" x2="1099.6" y2="435.5"/>
		<line class="st11" x1="1044.9" y1="422.8" x2="1071" y2="457.2"/>
		<line class="st11" x1="1016.3" y1="444.5" x2="1042.3" y2="478.9"/>
		<line class="st11" x1="987.6" y1="466.2" x2="1013.7" y2="500.6"/>
		<line class="st11" x1="959" y1="487.9" x2="985" y2="522.3"/>
	</g>
	<path class="st7" d="M821.1,640.1L801,613.6c-0.6-0.8-0.5-2,0.4-2.6l0.1-0.1c0.8-0.6,2-0.5,2.6,0.4l20.1,26.5
		c0.6,0.8,0.5,2-0.4,2.6l-0.1,0.1C822.9,641.1,821.7,640.9,821.1,640.1z"/>
</g>
<path class="st4" d="M1075.3,440.6L1075.3,440.6c10.2,0.7,17.8,9.6,17.1,19.7l-4.6,59.8c-0.7,10.2-9.6,17.8-19.7,17.1l0,0
	c-10.2-0.7-17.8-9.6-17.1-19.7l4.6-59.8C1056.3,447.6,1065.1,439.9,1075.3,440.6z"/>
<g>
	<path class="st12" d="M1089.4,460.7L1089.4,460.7c-3.2-0.6-5.4-3.7-4.8-6.9l4.8-26.8c0.6-3.2,3.7-5.4,6.9-4.8l0,0
		c3.2,0.6,5.4,3.7,4.8,6.9l-4.8,26.8C1095.7,459.2,1092.6,461.3,1089.4,460.7z"/>
	<path class="st12" d="M1055.1,476.6l-5-8.2c-2.1-3.5-1-8.1,2.5-10.3l27.8-16.8c3.5-2.1,8.1-1,10.3,2.5l5,8.2
		c2.3,3.8,1.1,8.7-2.7,10.9l-27,16.3C1062.3,481.5,1057.4,480.3,1055.1,476.6z"/>
	<path class="st12" d="M1091.1,455.7L1091.1,455.7c-2.8,1.7-6.4,0.8-8.1-2l-14.1-23.3c-1.7-2.8-0.8-6.4,2-8.1l0,0
		c2.8-1.7,6.4-0.8,8.1,2l14.1,23.3C1094.8,450.4,1093.9,454,1091.1,455.7z"/>
	<path class="st12" d="M1078.2,457.3L1078.2,457.3c-2.8,1.7-6.4,0.8-8.1-2l-14.1-23.3c-1.7-2.8-0.8-6.4,2-8.1l0,0
		c2.8-1.7,6.4-0.8,8.1,2l14.1,23.3C1081.9,451.9,1081,455.6,1078.2,457.3z"/>
	<path class="st12" d="M1069.6,466L1069.6,466c-2.8,1.7-6.4,0.8-8.1-2l-14.1-23.3c-1.7-2.8-0.8-6.4,2-8.1l0,0c2.8-1.7,6.4-0.8,8.1,2
		l14.1,23.3C1073.3,460.6,1072.4,464.3,1069.6,466z"/>
	<path class="st12" d="M1061.7,475.8L1061.7,475.8c-2.8,1.7-6.4,0.8-8.1-2l-14.1-23.3c-1.7-2.8-0.8-6.4,2-8.1l0,0
		c2.8-1.7,6.4-0.8,8.1,2l14.1,23.3C1065.4,470.5,1064.5,474.1,1061.7,475.8z"/>
</g>
<path class="st4" d="M866,376.6l1.3,1.6c6.1,7.5,5,18.4-2.4,24.5L757,491c-7.5,6.1-18.4,5-24.5-2.4l-1.3-1.6
	c-6.1-7.5-5-18.4,2.4-24.5l107.8-88.3C848.9,368,859.9,369.1,866,376.6z"/>
<path class="st4" d="M845.2,558.1L845.2,558.1c-6.5,7.9-18.1,9-26,2.5l-84.8-69.9c-7.9-6.5-9-18.1-2.5-26v0c6.5-7.9,18.1-9,26-2.5
	l84.8,69.9C850.5,538.6,851.7,550.2,845.2,558.1z"/>
<g>
	<path class="st12" d="M836.5,562l-9.2,6.7l20.8,28.8c1.8,2.5,5.4,3.1,7.9,1.3l0,0c2.5-1.8,3.1-5.4,1.3-7.9L836.5,562z"/>
	<path class="st12" d="M846.1,555.2l-9,7l26.3,33.9c1.9,2.5,5.5,2.9,8,1v0c2.5-1.9,2.9-5.5,1-8L846.1,555.2z"/>
	<path class="st12" d="M856.8,552.1l-8.2,7.9l29.8,30.9c2.2,2.3,5.8,2.3,8,0.1v0c2.3-2.2,2.3-5.8,0.1-8L856.8,552.1z"/>
	<path class="st12" d="M858.7,542.8l-6.6,9.3l35,24.8c2.6,1.8,6.1,1.2,7.9-1.3l0,0c1.8-2.6,1.2-6.1-1.3-7.9L858.7,542.8z"/>
	<path class="st12" d="M854.6,535.8l-1.7,11.2l25.6,3.9c3.1,0.5,6-1.7,6.5-4.8l0,0c0.5-3.1-1.7-6-4.8-6.5L854.6,535.8z"/>
	<path class="st12" d="M861.1,538.9l6.3,6.5c1.2,1.2,1.1,3.1-0.1,4.2l-28.5,27.6c-1.2,1.2-3.1,1.1-4.2-0.1l-6.3-6.5
		c-4.3-4.5-4.2-11.7,0.3-16l16.5-16C849.6,534.3,856.7,534.4,861.1,538.9z"/>
</g>
<path class="st12" d="M928.9,366.9c0,13.4-10.9,24.5-24.3,24.5h0h-0.2c-13.4,0-24.5-11.1-24.5-24.5v-21.5h49V366.9z"/>
<path class="st13" d="M879.9,361.3c0,0,12.9,5.6,27.8,4.4c14.9-1.2,21.2-4,21.2-4V349h-49V361.3z"/>
<path class="st12" d="M911,355.9c-34.6,4.1-79.9-21.2-84.9-63.6l-15.1-127.6l153-18.2l15.1,127.6C984.1,316.6,945.6,351.8,911,355.9
	z"/>
<rect x="801.8" y="221.2" transform="matrix(0.993 -0.1178 0.1178 0.993 -22.6497 98.2736)" class="st0" width="36.3" height="39"/>
<ellipse transform="matrix(0.993 -0.1178 0.1178 0.993 -24.6656 98.5858)" class="st12" cx="821.6" cy="257.9" rx="21.9" ry="21.9"/>
<path class="st14" d="M817.6,261.5c-0.5-4.3,2.5-8.1,6.8-8.6c1.2-0.1,2.3,0,3.4,0.4c-1.6-2.1-4.3-3.3-7.1-3
	c-4.3,0.5-7.3,4.4-6.8,8.6c0.4,3.1,2.5,5.5,5.3,6.4C818.3,264.2,817.8,262.9,817.6,261.5z"/>
<path class="st0" d="M823.1,159.2l0,0.4l-9.5,1.1c-11.6,1.4-20,11.7-18.6,23.3l-0.1-0.2l3.5,29.7l2.9,24.4l36-4.3l-1.3-11.1
	c-0.9-7.4,4.1-13.9,11.5-14.8l117.1-13.9c14-1.7,24.1-14.5,22.4-28.5l-6-51l-135.5,16.1C831.7,132.1,821.4,145.2,823.1,159.2z"/>
<polygon class="st0" points="988.6,231.8 972.1,222.8 967.2,181.7 982.5,179.9 "/>
<ellipse transform="matrix(0.993 -0.1178 0.1178 0.993 -21.4182 116.7277)" class="st12" cx="976.7" cy="239.5" rx="21.9" ry="21.9"/>
<path class="st14" d="M984.2,241.7c-0.5-4.3-4.4-7.3-8.6-6.8c-1.2,0.1-2.3,0.5-3.2,1.1c1.1-2.4,3.4-4.2,6.2-4.6
	c4.3-0.5,8.1,2.5,8.6,6.8c0.4,3.1-1.1,5.9-3.6,7.5C984.1,244.5,984.4,243.2,984.2,241.7z"/>
<path class="st15" d="M885.2,295.4c1.6,13.5,13.9,23.2,27.4,21.6h0c13.5-1.6,23.2-13.9,21.6-27.4"/>
<path class="st14" d="M901.7,260.2l1.9,15.7c0.1,0.7,1,1.2,1.7,1.1l9.3-1.1c2.5-0.3,3.6-3.4,1.7-5.2L904,259.1
	C903.1,258.3,901.5,259,901.7,260.2z"/>
<ellipse transform="matrix(0.993 -0.1178 0.1178 0.993 -23.8831 104.7195)" class="st0" cx="873.9" cy="254.4" rx="5" ry="8.8"/>
<ellipse transform="matrix(0.993 -0.1178 0.1178 0.993 -22.5629 112.0952)" class="st0" cx="936.9" cy="246.9" rx="5" ry="8.8"/>
</svg>
